<svg width="51" height="20" viewBox="0 0 51 20" fill="none" xmlns="http://www.w3.org/2000/svg">
<path fill-rule="evenodd" clip-rule="evenodd" d="M43.8915 12.0698C46.0456 11.9961 47.7369 10.2262 47.7369 8.04305C47.7369 6.38838 46.7112 4.88571 45.1782 4.28809L45.1122 4.26851C44.6733 4.1004 44.2151 4.01519 43.7524 4.01519L43.6077 4.0175C41.4525 4.09119 39.7623 5.85986 39.7623 8.04305C39.7623 10.2654 41.5505 12.0721 43.7501 12.0721L43.8915 12.0698ZM50.8131 1.02366C51.1322 1.81472 50.7709 2.74396 49.9913 3.14237C49.7907 3.24486 49.5833 3.34158 49.3702 3.43254C50.4233 4.74062 51 6.36075 51 8.04305C51 11.9903 47.8236 15.2743 43.92 15.3664L43.7354 15.3676C43.6077 15.3676 43.4823 15.3642 43.3558 15.3584C39.711 15.1626 36.7021 12.1239 36.5095 8.44146C36.4023 6.41141 37.1056 4.48154 38.4892 3.00765C39.874 1.53146 41.742 0.718521 43.7501 0.718521L44.0465 0.725429C44.442 0.742701 44.8386 0.793367 45.2295 0.878575C45.4563 0.925789 45.6866 0.94997 45.9168 0.945358L46.2701 0.916574C47.0611 0.80488 47.8338 0.556163 48.5575 0.180781C48.7946 0.0575738 49.0601 0 49.3257 0L49.4249 0.00460556C50.0506 0.0564219 50.5782 0.446772 50.8131 1.02366ZM7.39227 12.2035C9.54518 12.131 11.2366 10.3612 11.2366 8.17802C11.2366 5.95798 9.44944 4.15131 7.25208 4.15016L7.10619 4.15246C4.95325 4.22615 3.2619 5.99482 3.2619 8.17802C3.2619 10.4003 5.05013 12.207 7.2498 12.207L7.39227 12.2035ZM7.2498 0.853487L7.43216 0.855789C11.3312 0.955972 14.4996 4.24113 14.4996 8.17802C14.4996 12.2174 11.2468 15.5025 7.2498 15.5025C3.25164 15.5025 0 12.2174 0 8.17802C0 4.13864 3.25164 0.853487 7.2498 0.853487ZM30.6747 1.14422L30.848 1.14767C33.907 1.25015 35.2974 3.95267 35.2974 6.41797V13.3625C35.2974 14.3171 34.519 15.0909 33.5628 15.0909C32.6191 15.0909 31.8521 14.3171 31.8521 13.3625V6.85208C31.8521 4.82779 31.2469 4.45701 30.0547 4.45701L29.8963 4.46162C28.5468 4.52494 27.7752 5.46685 27.2544 6.30973V13.3625C27.2544 14.3171 26.4759 15.0909 25.5186 15.0909C24.5749 15.0909 23.8079 14.3171 23.8079 13.3625V6.85208C23.8079 4.82779 23.2027 4.45701 22.0105 4.45701L21.8521 4.46162C20.5038 4.52494 19.7311 5.46685 19.2102 6.30973V13.3625C19.2102 14.3171 18.4318 15.0909 17.4755 15.0909C16.5318 15.0909 15.7648 14.3171 15.7648 13.3625V3.01767C15.7648 2.05159 16.5318 1.26627 17.4755 1.26627L17.5815 1.26858C18.2836 1.31809 18.8763 1.80056 19.1065 2.43618C20.081 1.57832 21.264 1.14422 22.6306 1.14422L22.8242 1.14767C24.2718 1.20525 25.5345 1.89843 26.354 3.07179C27.4345 1.79135 28.8853 1.14422 30.6747 1.14422ZM48.0196 15.7176L47.9159 15.7107C47.6435 15.7015 47.3665 15.7649 47.1203 15.8915C46.1572 16.3912 45.1201 16.663 44.0408 16.6987L43.7832 16.7021C42.4976 16.7021 41.2348 16.3625 40.1292 15.7176C39.9207 15.5956 39.6939 15.5231 39.4443 15.5023L39.3155 15.4966C39.1742 15.4966 39.0317 15.5138 38.8904 15.5518C38.4698 15.6658 38.1176 15.9387 37.9011 16.3198C37.6823 16.701 37.6242 17.1443 37.7381 17.5703C37.8498 17.9964 38.1199 18.3522 38.4983 18.5721C40.0973 19.506 41.9243 20 43.7832 20C45.4597 20 47.1283 19.5935 48.6111 18.8243C49.4112 18.4098 49.7281 17.4149 49.3178 16.6054C49.0635 16.108 48.5826 15.7764 48.0196 15.7176Z" fill="#01A3FF"/>
</svg>
